# xmcd CD database file
# Copyright (C) 1993-1998 Ti Kan
# 
# Track frame offsets:
#     150
#     19830
#     34695
#     40235
#     51530
#     64567
#     82075
#     97125
#     118935
#     135442
#     150450
#     160310
#     180102
# 
# Disc length: 2584 seconds
# 
# Revision: 1
# Processed by: cddbd v1.4b41PL1 Copyright (c) Steve Scherf et al.
# Submitted via: DiscPlay 4.0.4
# 
DISCID=a70a160d
DTITLE=Various Artist - High Tone Records Roadhouse Revival
DYEAR=1900
DGENRE=
TTITLE0=Dave Alvin--Haley's Comet
TTITLE1=Dale Watson--Caught
TTITLE2=Rev.Billy C. Wirtz--The Miracle Blessed Prayer Cloth
TTITLE3=Big Sandy and His Fly-Rite Boys--My Sinful Days Are Over
TTITLE4=Buddy Miller--You Wrecked Up My Heart
TTITLE5=Rev.Billy C. Wirtz-Freeway to Stairbird
TTITLE6=Big Sandy and His Fly-Rite Boys--Blackberry Wine
TTITLE7=Dave Alvin--King Of California
TTITLE8=Dale Watson--Wine, Wine, Wine
TTITLE9=Buddy Miller--I'm Pretending
TTITLE10=Big Sandy and His Fly-Rite Boys--Different Girl
TTITLE11=Dave Alvin--$30 Room
TTITLE12=Rev.Billy C. Wirtz--Right Wing Round Up
EXTD=
EXTT0=
EXTT1=
EXTT2=
EXTT3=
EXTT4=
EXTT5=
EXTT6=
EXTT7=
EXTT8=
EXTT9=
EXTT10=
EXTT11=
EXTT12=
PLAYORDER=
